<svg xmlns="http://www.w3.org/2000/svg" width="130.119" height="26.251" viewBox="0 0 130.119 26.251"><g transform="translate(-305.908 -32.781)"><path d="M307.744,54.191a13.307,13.307,0,0,0,3.185,3.185l4.349-7.534-7.534,4.349" transform="translate(0.515 -0.696)"/><path d="M310.929,35.828a13.2,13.2,0,0,0-3.185,3.185l7.534,4.348-4.349-7.533" transform="translate(0.515 -0.696)"/><path d="M324.054,34.641a13.046,13.046,0,0,0-4.35-1.164v8.7l4.35-7.535" transform="translate(0.515 -0.696)"/><path d="M312.981,58.562a13.091,13.091,0,0,0,4.351,1.166v-8.7l-4.351,7.534" transform="translate(0.515 -0.696)"/><path d="M329.292,39.013a13.212,13.212,0,0,0-3.184-3.185l-4.349,7.533,7.533-4.348" transform="translate(0.515 -0.696)"/><path d="M326.108,57.376a13.225,13.225,0,0,0,3.183-3.185l-7.532-4.349,4.349,7.534" transform="translate(0.515 -0.696)"/><path d="M331.643,45.415a13.16,13.16,0,0,0-1.163-4.35l-7.536,4.35h8.7" transform="translate(0.515 -0.696)"/><path d="M305.393,47.787a13.064,13.064,0,0,0,1.163,4.348l7.537-4.348h-8.7" transform="translate(0.515 -0.696)"/><path d="M306.556,41.065a13.105,13.105,0,0,0-1.163,4.35h8.7l-7.537-4.35" transform="translate(0.515 -0.696)"/><path d="M322.944,47.787l7.536,4.348a13.04,13.04,0,0,0,1.163-4.348h-8.7" transform="translate(0.515 -0.696)"/><path d="M317.332,33.477a13.058,13.058,0,0,0-4.351,1.164l4.351,7.535v-8.7" transform="translate(0.515 -0.696)"/><path d="M319.7,59.728a13.079,13.079,0,0,0,4.35-1.166l-4.35-7.534v8.7" transform="translate(0.515 -0.696)"/><path d="M328.471,35.06a1.586,1.586,0,1,1,1.59,1.59,1.585,1.585,0,0,1-1.59-1.59Zm2.919,0a1.334,1.334,0,1,0-1.33,1.337h0a1.284,1.284,0,0,0,1.33-1.235C331.392,35.128,331.392,35.094,331.39,35.06Zm-1.692.9h-.233V34.145h.781c.473,0,.634.176.634.5,0,.35-.246.481-.561.506l.539.806h-.26l-.512-.806H329.7Zm.32-1.017c.254,0,.608.042.608-.3,0-.253-.21-.288-.43-.288h-.5v.587Z" transform="translate(0.515 -0.696)"/><path d="M346.761,43.671a2.419,2.419,0,0,0-2.564-1.929c-2.985,0-3.538,2.732-3.538,4.862,0,2.5.757,4.855,3.388,4.855a2.453,2.453,0,0,0,2.661-1.924h1.759c-.166,2.028-2.211,3.364-4.571,3.364-3.57,0-4.991-2.912-4.991-6.295,0-2.966,1.3-6.418,5.356-6.3,2.329.067,4.073,1.207,4.256,3.368h-1.756" transform="translate(0.515 -0.696)"/><path d="M351.413,48.746c-.116,1.476.488,3,2.111,3a1.771,1.771,0,0,0,2.025-1.472,1.868,1.868,0,0,0,.021-.236h1.674c-.252,1.91-1.724,2.862-3.735,2.862-2.7,0-3.769-1.907-3.769-4.386,0-2.462,1.238-4.524,3.9-4.524,2.514.049,3.7,1.642,3.7,3.968v.789h-5.93m4.257-1.1c.032-1.41-.606-2.5-2.146-2.5a2.233,2.233,0,0,0-2.125,2.334c0,.055.008.111.014.166Z" transform="translate(0.515 -0.696)"/><path d="M360.533,45.48h.033a2.916,2.916,0,0,1,2.546-1.49c.587,0,3.186.151,3.186,2.848v5.809H364.7V47.355c0-1.39-.584-2.143-1.928-2.143a2.178,2.178,0,0,0-1.539.62c-.234.233-.671.6-.671,2.245v4.57h-1.592V44.241h1.559V45.48" transform="translate(0.515 -0.696)"/><path d="M368.813,44.238V42.449l1.592-.5v2.293h1.944v1.155H370.4v5.4c0,.6.469.886,1.04.886a3.657,3.657,0,0,0,.834-.1V52.8c-.366.018-.721.1-1.085.1a5.921,5.921,0,0,1-1.072-.08,1.506,1.506,0,0,1-.939-.555c-.285-.4-.37-.434-.37-1.556V45.393h-1.439V44.238h1.439" transform="translate(0.515 -0.696)"/><path d="M379.344,44.241h1.589v8.406h-1.556V51.411h-.033a3.194,3.194,0,0,1-2.882,1.488,2.756,2.756,0,0,1-2.78-2.731c0-.1,0-.2.014-.3V44.24h1.593v4.975c0,1.459.334,2.53,1.86,2.53a2,2,0,0,0,1.877-1.207,6.224,6.224,0,0,0,.318-1.975V44.24" transform="translate(0.515 -0.696)"/><path d="M384.651,52.647H383.06V44.241h1.591v1.622h.035a2.329,2.329,0,0,1,2.461-1.74c.2,0,.371.018.553.018v1.507a1.989,1.989,0,0,0-.686-.082c-2.012.065-2.363,1.137-2.363,2.914v4.167" transform="translate(0.515 -0.696)"/><path d="M392.408,55.867h-1.629l1.274-3.251-3.5-8.376h1.771l2.632,6.633,2.684-6.633h1.706l-4.94,11.627" transform="translate(0.515 -0.696)"/><path d="M398.541,52.647V40.553h2.6V50.64h5.243v2.007h-7.84" transform="translate(0.515 -0.696)"/><path d="M407.87,40.553h2.681v2.163H407.87Zm.084,3.688h2.513v8.406h-2.513Z" transform="translate(0.515 -0.696)"/><path d="M415.371,45.212l.033.051a2.863,2.863,0,0,1,2.58-1.273c.837,0,2.463.617,2.763,1.842a5.671,5.671,0,0,1,.17,1.341v5.474H418.4V47.592c-.015-.907-.269-1.926-1.507-1.926-.789,0-1.474.7-1.509,1.926v5.055h-2.511V44.241h2.495v.971" transform="translate(0.515 -0.696)"/><path d="M425.861,47.644l.032.03,2.479-3.533h2.8l-2.9,3.684,3.082,4.822h-2.93l-2.53-4.6-.032.034v4.57h-2.512V40.553h2.512v7.091" transform="translate(0.515 -0.696)"/><path d="M432.339,45.723a1.589,1.589,0,1,1,0,.005Zm2.92,0a1.334,1.334,0,1,0-1.329,1.338,1.282,1.282,0,0,0,1.329-1.234.91.91,0,0,0,0-.1Zm-1.692.9h-.233V44.807h.783c.471,0,.631.178.631.5,0,.35-.245.482-.561.506l.54.806h-.261l-.511-.806h-.388Zm.32-1.017c.254,0,.608.043.608-.3,0-.253-.211-.287-.43-.287h-.5V45.6Z" transform="translate(0.515 -0.696)"/></g></svg>